<svg width="103" height="78" viewBox="0 0 103 78" fill="none" xmlns="http://www.w3.org/2000/svg">
<path d="M23.6076 4.80156H25.4749V5.91264e-06H23.6076C21.6279 -0.00174838 19.6673 0.386891 17.8379 1.14368C16.0086 1.90048 14.3464 3.01057 12.9465 4.41044C11.5467 5.81031 10.4366 7.47248 9.67977 9.30184C8.92297 11.1312 8.53433 13.0918 8.53609 15.0715V26.0084C8.5401 28.3242 7.65813 30.5537 6.07099 32.2401C4.48384 33.9264 2.31176 34.9418 0 35.078L0.133376 37.4788L0 39.8795C2.31176 40.0158 4.48384 41.0311 6.07099 42.7174C7.65813 44.4038 8.5401 46.6334 8.53609 48.9491V61.5532C8.529 65.7356 10.1828 69.7497 13.1339 72.7133C16.085 75.677 20.0921 77.3477 24.2745 77.3583V72.5568C21.3744 72.555 18.5936 71.4021 16.5429 69.3515C14.4922 67.3008 13.3394 64.52 13.3376 61.6199V48.9491C13.3397 46.687 12.7876 44.4588 11.7297 42.4593C10.6718 40.4598 9.1403 38.7498 7.26901 37.4788C9.13497 36.2024 10.6624 34.4912 11.7197 32.4929C12.7769 30.4946 13.3322 28.2691 13.3376 26.0084V15.0715C13.3499 12.3516 14.4359 9.74647 16.3592 7.82313C18.2826 5.89979 20.8876 4.81384 23.6076 4.80156Z" fill="black"/>
<path d="M79.0924 4.80155H77.2251V0H79.0924C83.0802 0.0105997 86.9007 1.60402 89.7143 4.4301C92.5278 7.25618 94.1043 11.0837 94.0972 15.0715V26.0084C94.0932 28.3242 94.9752 30.5537 96.5623 32.2401C98.1495 33.9264 100.322 34.9418 102.633 35.078L102.5 37.4788L102.633 39.8795C100.322 40.0158 98.1495 41.0311 96.5623 42.7174C94.9752 44.4038 94.0932 46.6334 94.0972 48.9491V61.5532C94.1043 65.7356 92.4505 69.7497 89.4994 72.7133C86.5483 75.677 82.5412 77.3477 78.3588 77.3583V72.5567C81.2589 72.555 84.0397 71.4021 86.0904 69.3515C88.141 67.3008 89.2939 64.52 89.2957 61.6199V48.9491C89.2936 46.687 89.8457 44.4588 90.9036 42.4593C91.9615 40.4598 93.493 38.7498 95.3643 37.4788C93.4983 36.2024 91.9709 34.4912 90.9136 32.4929C89.8564 30.4946 89.3011 28.2691 89.2957 26.0084V15.0715C89.3027 13.7265 89.044 12.3933 88.5346 11.1485C88.0251 9.90366 87.2749 8.77168 86.3269 7.81749C85.3789 6.86331 84.2518 6.1057 83.0104 5.58815C81.7689 5.0706 80.4374 4.80329 79.0924 4.80155Z" fill="black"/>
<path d="M68.8224 19.3395H75.9581L61.0866 33.2773C58.4184 35.6916 54.9485 37.0285 51.3501 37.0285C47.7518 37.0285 44.2818 35.6916 41.6137 33.2773L26.7422 19.3395H33.8778L45.1481 29.8762C46.8311 31.4208 49.0324 32.2779 51.3168 32.2779C53.6012 32.2779 55.8024 31.4208 57.4854 29.8762L68.8224 19.3395Z" fill="black"/>
<path d="M33.8109 58.0189H26.6753L41.6134 44.0144C44.2669 41.5704 47.7424 40.2136 51.3499 40.2136C54.9574 40.2136 58.433 41.5704 61.0864 44.0144L76.0245 58.0189H68.8889L57.5519 47.3488C55.8689 45.8042 53.6676 44.9472 51.3833 44.9472C49.0989 44.9472 46.8976 45.8042 45.2146 47.3488L33.8109 58.0189Z" fill="black"/>
</svg>
